<?xml version="1.0" encoding="UTF-8"?>
<svg version="1.1" xmlns="http://www.w3.org/2000/svg" width="351" height="223">
<path d="M0 0 C6.08260302 2.43304121 8.0297287 8.97129369 10.546875 14.57421875 C11.5 17 11.5 17 11.5 19 C12.38042969 18.57847656 13.26085937 18.15695313 14.16796875 17.72265625 C15.32941406 17.17480469 16.49085937 16.62695312 17.6875 16.0625 C18.83605469 15.51722656 19.98460938 14.97195312 21.16796875 14.41015625 C24.03204345 13.19804492 26.42224334 12.34440261 29.5 12 C30.49 12.495 30.49 12.495 31.5 13 C31.94757548 19.54487421 30.79129853 23.53161811 27.6875 29.25 C27.33107422 29.94351563 26.97464844 30.63703125 26.60742188 31.3515625 C25.12383193 34.19352196 23.67751127 36.77281638 21.69921875 39.3046875 C21.30347656 39.86414062 20.90773438 40.42359375 20.5 41 C21.44048583 45.32623481 23.453229 49.09252808 25.5 53 C29.80191534 51.21262356 33.96087689 49.29158853 38.09375 47.14453125 C60.24917007 35.67118871 60.24917007 35.67118871 70.5 37 C72.9375 37.8125 72.9375 37.8125 74.5 39 C74.83 39.99 75.16 40.98 75.5 42 C75.61480713 41.35450195 75.72961426 40.70900391 75.84790039 40.04394531 C76.38853728 37.10596547 76.97488356 34.17892929 77.5625 31.25 C77.74232422 30.23421875 77.92214844 29.2184375 78.10742188 28.171875 C79.61859505 20.87986477 79.61859505 20.87986477 82.03686523 18.46582031 C91.85473873 12.607224 107.39603462 10.90665669 118.53222656 13.46728516 C120.1992383 13.94076338 121.85156316 14.4654294 123.5 15 C123.70841974 19.33260429 123.25827428 22.20243161 121.4375 26.125 C117.60283269 34.89923877 114.53033111 43.92099104 111.5 53 C111.23541992 53.78874512 110.97083984 54.57749023 110.69824219 55.39013672 C107.08140974 66.33025061 104.41090201 77.41672158 102.0625 88.6875 C101.92472137 89.34321991 101.78694275 89.99893982 101.64498901 90.67453003 C100.44509941 96.31482509 100.44509941 96.31482509 99.5 102 C101.67280997 104.17280997 106.53946235 103.42802618 109.5625 103.5625 C110.45614258 103.6049585 111.34978516 103.64741699 112.27050781 103.69116211 C120.35158106 104.04784891 128.41231485 104.10166085 136.5 104 C136.32230519 102.06432346 136.32230519 102.06432346 135.5 100 C133.59367718 98.64484544 133.59367718 98.64484544 131.25 97.625 C126.76870629 95.29501316 124.24872567 93.25609135 121.5 89 C121.1875 86.125 121.1875 86.125 121.5 84 C125.00776784 82.39644899 127.64354879 81.77963136 131.5 82 C131.17 79.69 130.84 77.38 130.5 75 C131.221875 74.5875 131.94375 74.175 132.6875 73.75 C135.55083731 72.0897176 135.55083731 72.0897176 137.875 69.8125 C141.24445926 67.48596861 143.49261414 67.68569523 147.5 68 C147.5 67.34 147.5 66.68 147.5 66 C148.13251678 66.16141983 148.76503357 66.32283966 149.41671753 66.489151 C153.56895405 67.17710804 157.63031957 67.16103296 161.83251953 67.17358398 C163.23090057 67.1836145 163.23090057 67.1836145 164.65753174 67.19384766 C166.67692905 67.20787024 168.69634196 67.21977312 170.71576309 67.22979546 C173.90951506 67.24623117 177.10315057 67.2694674 180.29684448 67.29469299 C189.37540887 67.36541807 198.454019 67.4257197 207.53271484 67.47680664 C213.08875534 67.50854682 218.6446586 67.54980141 224.20058823 67.59700203 C226.31930967 67.61304227 228.43806266 67.62535445 230.55682755 67.63390923 C233.5134507 67.64602491 236.46974898 67.67015627 239.42626953 67.69702148 C240.7448143 67.6979052 240.7448143 67.6979052 242.08999634 67.69880676 C248.15814309 67.77209539 248.15814309 67.77209539 251.5 70 C252.42697937 72.78093812 252.6331695 74.47764778 252.65390015 77.35128784 C252.66250061 78.24008636 252.67110107 79.12888489 252.67996216 80.0446167 C252.68635208 81.50342255 252.68635208 81.50342255 252.69287109 82.99169922 C252.70104858 84.01798431 252.70922607 85.04426941 252.71765137 86.10165405 C252.74249359 89.50265925 252.75901639 92.90362281 252.7734375 96.3046875 C252.77876118 97.46514713 252.78408485 98.62560677 252.78956985 99.82123184 C252.81629335 105.96072988 252.83567288 112.10020761 252.85009766 118.23974609 C252.86676468 124.5876445 252.91156254 130.93502568 252.9624691 137.2827282 C252.99608102 142.15887059 253.00766834 147.03488912 253.01332474 151.91113663 C253.0200514 154.2515573 253.03530991 156.59196943 253.05921555 158.93227768 C253.0907456 162.20512199 253.0909219 165.47655614 253.08349609 168.74951172 C253.09990143 169.71800049 253.11630676 170.68648926 253.13320923 171.68432617 C253.09330963 175.97449964 252.87617381 178.38529001 250.60220337 182.10121155 C246.14420864 184.8298492 242.41861616 184.69332687 237.28125 184.63110352 C235.74138428 184.64183647 235.74138428 184.64183647 234.17041016 184.65278625 C230.77981964 184.66968352 227.39054934 184.65026342 224 184.62890625 C221.64257701 184.62973485 219.28515408 184.63219387 216.92773438 184.63621521 C211.98810426 184.63907394 207.04892738 184.62436393 202.109375 184.59692383 C195.77720857 184.56284163 189.44585269 184.56885895 183.11364746 184.5875864 C178.24602502 184.59815417 173.37859123 184.58922045 168.51098633 184.57420158 C166.17619385 184.56901772 163.84138169 184.56950403 161.5065918 184.57574654 C158.2435468 184.58119578 154.98166273 184.56083133 151.71875 184.53344727 C150.27072998 184.54323608 150.27072998 184.54323608 148.79345703 184.55322266 C144.66117115 184.49424535 142.0878351 184.31458865 138.39680481 182.33927917 C135.98921856 179.37006677 135.89247821 177.83607419 135.93237305 174.03808594 C135.9327507 172.83714294 135.93312836 171.63619995 135.93351746 170.39886475 C135.9722271 168.46119232 135.9722271 168.46119232 136.01171875 166.484375 C136.02104908 165.14489055 136.02816416 163.80538899 136.03315735 162.46588135 C136.05221078 158.94731189 136.10129436 155.42978125 136.15667725 151.91162109 C136.20790722 148.31882785 136.2306792 144.72586604 136.25585938 141.1328125 C136.30941685 134.08811774 136.39470769 127.04412683 136.5 120 C101.60896532 128.80019165 101.60896532 128.80019165 70.91796875 146.96875 C69.5 148 69.5 148 67.5 148 C67.5 148.66 67.5 149.32 67.5 150 C66.84 150 66.18 150 65.5 150 C65.5 150.66 65.5 151.32 65.5 152 C64.55125 152.721875 63.6025 153.44375 62.625 154.1875 C56.51257772 159.17031652 52.66738644 166.40932446 48.5 173 C49.72976562 172.84660156 50.95953125 172.69320312 52.2265625 172.53515625 C55.51855587 172.18704287 58.79241389 171.9317003 62.1015625 171.828125 C62.84744629 171.80395508 63.59333008 171.77978516 64.36181641 171.75488281 C66.9222742 172.04840869 68.40410424 172.83563918 70.5 174.3125 C74.36149188 180.75263914 74.13361281 189.69371135 74.5 197 C74.55929688 198.15886719 74.61859375 199.31773437 74.6796875 200.51171875 C74.84713273 207.4793009 74.84713273 207.4793009 72.5 211 C69.39505874 211.31845551 67.48273923 210.99424641 64.5 210 C63.860625 210.185625 63.22125 210.37125 62.5625 210.5625 C60.5 211 60.5 211 58.3125 210.1875 C56.5 209 56.5 209 55.5 207 C53.47536745 206.34786708 53.47536745 206.34786708 51.5 206 C51.44565884 203.4580411 51.4061661 200.91726318 51.375 198.375 C51.35824219 197.66214844 51.34148437 196.94929687 51.32421875 196.21484375 C51.28315398 191.7387836 51.80913433 188.22050722 53.5 184 C52.85675781 184.2165625 52.21351562 184.433125 51.55078125 184.65625 C44.32274764 186.88343297 37.05980545 188.13564088 29.5 187 C25.48367258 180.97550887 27.61100224 173.50019019 28.921875 166.73046875 C29.11265625 165.78816406 29.3034375 164.84585938 29.5 163.875 C30.71416177 157.82880255 31.77390123 152.1798965 31.5 146 C30.84 145.67 30.18 145.34 29.5 145 C29.5 144.34 29.5 143.68 29.5 143 C28.9225 142.731875 28.345 142.46375 27.75 142.1875 C25.44449957 140.97070811 23.47943808 139.69666121 21.5 138 C21.5 137.34 21.5 136.68 21.5 136 C20.18 135.67 18.86 135.34 17.5 135 C17.5 134.34 17.5 133.68 17.5 133 C16.84 133 16.18 133 15.5 133 C13.875 131.625 13.875 131.625 12.5 130 C12.5 129.34 12.5 128.68 12.5 128 C11.901875 127.73960937 11.30375 127.47921875 10.6875 127.2109375 C8.35352153 125.91891371 7.16026805 124.69131187 5.5 122.625 C4.98695312 122.00882812 4.47390625 121.39265625 3.9453125 120.7578125 C3.46835938 120.17773438 2.99140625 119.59765625 2.5 119 C0.54283243 116.5366901 0.54283243 116.5366901 -1.5 115 C-5.51720804 115.35286287 -8.40081228 117.81665917 -11.625 120.0625 C-17.28558875 124 -17.28558875 124 -19.5 124 C-19.5 124.66 -19.5 125.32 -19.5 126 C-21.57952973 127.45062773 -23.63767881 128.7705499 -25.8125 130.0625 C-26.70485352 130.60874023 -26.70485352 130.60874023 -27.61523438 131.16601562 C-34.27175088 135.18967532 -39.81724269 135.72674731 -47.5 135 C-51.56261389 132.96869306 -52.2531584 131.74052479 -53.6875 127.4375 C-53.955625 126.303125 -54.22375 125.16875 -54.5 124 C-55.16 123.01 -55.82 122.02 -56.5 121 C-56.625 118.5 -56.625 118.5 -55.5 116 C-49.70722898 112.94562983 -44.00436431 112.14823801 -37.5 113 C-34.10859894 114.27783147 -33.60538065 114.81182027 -31.75 118.125 C-31.13125 119.548125 -31.13125 119.548125 -30.5 121 C-30.01789062 120.6390625 -29.53578125 120.278125 -29.0390625 119.90625 C-28.40742187 119.4421875 -27.77578125 118.978125 -27.125 118.5 C-26.49851563 118.0359375 -25.87203125 117.571875 -25.2265625 117.09375 C-23.5 116 -23.5 116 -21.5 116 C-21.5 115.34 -21.5 114.68 -21.5 114 C-19.6015625 112.34375 -19.6015625 112.34375 -17.125 110.5 C-14.77095638 108.73633557 -12.5808095 107.0808095 -10.5 105 C-12.20984444 102.48464216 -13.940484 99.9893296 -15.6875 97.5 C-16.17025391 96.78457031 -16.65300781 96.06914063 -17.15039062 95.33203125 C-19.88385129 91.22622263 -19.88385129 91.22622263 -24.2421875 89.41796875 C-27.25504769 90.19464032 -28.38032897 91.75186406 -30.5 94 C-34.77972501 96.56783501 -38.50772613 97.72265145 -43.5 98 C-45.9375 97.0625 -45.9375 97.0625 -47.5 96 C-46.44124926 92.59687262 -45.49097846 89.98646769 -43.5 87 C-42.84 87 -42.18 87 -41.5 87 C-41.005 85.515 -41.005 85.515 -40.5 84 C-38.43359375 82.39453125 -38.43359375 82.39453125 -35.9375 80.8125 C-35.11121094 80.28269531 -34.28492187 79.75289063 -33.43359375 79.20703125 C-32.79550781 78.80871094 -32.15742187 78.41039063 -31.5 78 C-32.11488281 77.96261719 -32.72976562 77.92523438 -33.36328125 77.88671875 C-34.17152344 77.82097656 -34.97976562 77.75523438 -35.8125 77.6875 C-36.61300781 77.62949219 -37.41351563 77.57148437 -38.23828125 77.51171875 C-40.93304787 76.90202198 -41.86615101 76.20569614 -43.5 74 C-44.1875 70.3125 -44.1875 70.3125 -44.5 67 C-48.78020526 67 -53.05842278 69.40361665 -57.01953125 70.90625 C-60.12528719 71.88224513 -62.29054663 72.24452978 -65.5 72 C-65.5 71.01 -65.5 70.02 -65.5 69 C-63.234375 67.24609375 -63.234375 67.24609375 -60.25 65.4375 C-59.27546875 64.83808594 -58.3009375 64.23867187 -57.296875 63.62109375 C-55.05989912 62.32452253 -52.83073369 61.11542255 -50.5 60 C-50.5 59.34 -50.5 58.68 -50.5 58 C-49.84 58 -49.18 58 -48.5 58 C-46.11794044 53.55348883 -45.14029699 50.59131646 -46.421875 45.64453125 C-47.86944838 39.00250896 -47.79261383 32.4595478 -47.75 25.6875 C-47.75773437 24.43904297 -47.76546875 23.19058594 -47.7734375 21.90429688 C-47.77085938 20.70224609 -47.76828125 19.50019531 -47.765625 18.26171875 C-47.76336914 17.17850342 -47.76111328 16.09528809 -47.75878906 14.97924805 C-47.49250986 11.91377156 -46.90197083 9.73124002 -45.5 7 C-41.00066806 5.02992923 -35.86543961 6.5079672 -31.1875 7.3125 C-29.96256836 7.50875977 -29.96256836 7.50875977 -28.71289062 7.70898438 C-23.56310149 8.55839183 -18.54671013 9.67008444 -13.5 11 C-12.81164063 10.18595703 -12.81164063 10.18595703 -12.109375 9.35546875 C-11.49578125 8.64003906 -10.8821875 7.92460937 -10.25 7.1875 C-9.64671875 6.47980469 -9.0434375 5.77210937 -8.421875 5.04296875 C-3.67782027 0 -3.67782027 0 0 0 Z M74.5 45 C74.4175 45.78375 74.335 46.5675 74.25 47.375 C73.5 50 73.5 50 71.7734375 51.14453125 C69.18013101 52.12036307 67.14126862 52.30011372 64.375 52.3125 C63.07175781 52.33763672 63.07175781 52.33763672 61.7421875 52.36328125 C61.00226563 52.24339844 60.26234375 52.12351562 59.5 52 C58.84 51.01 58.18 50.02 57.5 49 C51.36799698 50.4523165 46.28090071 53.99386976 41.5 58 C41.5 58.66 41.5 59.32 41.5 60 C40.71625 60.2475 39.9325 60.495 39.125 60.75 C36.1083499 62.18650005 35.78434435 63.04720831 34.5 66 C39.58017102 72.94856219 44.57066681 79.28582432 52.5 83 C52.5 83.66 52.5 84.32 52.5 85 C58.35077817 89.39072864 65.93027196 95 73.5 95 C73.53758423 93.46460571 73.53758423 93.46460571 73.57592773 91.89819336 C73.67058794 88.07565258 73.77066195 84.2532689 73.87231445 80.4309082 C73.91544286 78.78120619 73.95713201 77.13146585 73.99731445 75.48168945 C74.05555647 73.10095711 74.11909097 70.72041373 74.18359375 68.33984375 C74.20030624 67.61039047 74.21701874 66.88093719 74.23423767 66.12937927 C74.36082066 61.68555258 74.81642675 57.40067439 75.5 53 C75.55931476 51.52187625 75.58844887 50.04158577 75.5625 48.5625 C75.541875 47.386875 75.52125 46.21125 75.5 45 C75.17 45 74.84 45 74.5 45 Z M-42.5 63 C-42.83 63.66 -43.16 64.32 -43.5 65 C-42.51 64.67 -41.52 64.34 -40.5 64 C-41.16 63.67 -41.82 63.34 -42.5 63 Z M200.5 117 C199.51 117.66 198.52 118.32 197.5 119 C197.5 116.69 197.5 114.38 197.5 112 C196.18 112 194.86 112 193.5 112 C193.5 112.66 193.5 113.32 193.5 114 C189.87 114.66 186.24 115.32 182.5 116 C182.5 132.17 182.5 148.34 182.5 165 C187.78 165 193.06 165 198.5 165 C198.54898437 162.59203125 198.59796875 160.1840625 198.6484375 157.703125 C198.70247488 155.36647421 198.75977147 153.02992445 198.81738281 150.69335938 C198.85562358 149.07169141 198.89048503 147.44994004 198.921875 145.828125 C198.96763257 143.49448883 199.02560816 141.16142438 199.0859375 138.828125 C199.09748871 138.10506165 199.10903992 137.38199829 199.12094116 136.63702393 C199.22783557 132.97660838 199.34300382 130.03738428 201.5 127 C204.5357225 124.976185 205.45772487 124.66225747 208.9375 124.5625 C209.69933594 124.52253906 210.46117187 124.48257813 211.24609375 124.44140625 C214.69957329 125.29729459 215.6103665 127.03776667 217.5 130 C217.91003076 132.83959136 218.10466223 135.30692253 218.109375 138.14453125 C218.12591125 138.91431808 218.14244751 139.68410492 218.15948486 140.47721863 C218.20785286 142.92239447 218.22930965 145.36694896 218.25 147.8125 C218.27816925 149.47594253 218.30809802 151.13935626 218.33984375 152.80273438 C218.41690581 156.86877219 218.45752342 160.93286718 218.5 165 C223.45 165 228.4 165 233.5 165 C236.68680214 139.68501347 236.68680214 139.68501347 230.0703125 116.70703125 C225.46382548 111.85551833 221.70542913 110.77943916 215.125 110.4375 C208.47931222 110.56646883 205.19807968 112.53335281 200.5 117 Z M154.5 117 C154.5 132.84 154.5 148.68 154.5 165 C159.78 165 165.06 165 170.5 165 C170.5 148.5 170.5 132 170.5 115 C165.1251615 115 159.82768988 116.28964135 154.5 117 Z " fill="#51A49D" transform="translate(68.5,6)"/>
<path d="M0 0 C0.63251678 0.16141983 1.26503357 0.32283966 1.91671753 0.489151 C6.06895405 1.17710804 10.13031957 1.16103296 14.33251953 1.17358398 C15.73090057 1.1836145 15.73090057 1.1836145 17.15753174 1.19384766 C19.17692905 1.20787024 21.19634196 1.21977312 23.21576309 1.22979546 C26.40951506 1.24623117 29.60315057 1.2694674 32.79684448 1.29469299 C41.87540887 1.36541807 50.954019 1.4257197 60.03271484 1.47680664 C65.58875534 1.50854682 71.1446586 1.54980141 76.70058823 1.59700203 C78.81930967 1.61304227 80.93806266 1.62535445 83.05682755 1.63390923 C86.0134507 1.64602491 88.96974898 1.67015627 91.92626953 1.69702148 C93.2448143 1.6979052 93.2448143 1.6979052 94.58999634 1.69880676 C100.65814309 1.77209539 100.65814309 1.77209539 104 4 C104.92697937 6.78093812 105.1331695 8.47764778 105.15390015 11.35128784 C105.16250061 12.24008636 105.17110107 13.12888489 105.17996216 14.0446167 C105.18635208 15.50342255 105.18635208 15.50342255 105.19287109 16.99169922 C105.20513733 18.53112686 105.20513733 18.53112686 105.21765137 20.10165405 C105.24249359 23.50265925 105.25901639 26.90362281 105.2734375 30.3046875 C105.27876118 31.46514713 105.28408485 32.62560677 105.28956985 33.82123184 C105.31629335 39.96072988 105.33567288 46.10020761 105.35009766 52.23974609 C105.36676468 58.5876445 105.41156254 64.93502568 105.4624691 71.2827282 C105.49608102 76.15887059 105.50766834 81.03488912 105.51332474 85.91113663 C105.5200514 88.2515573 105.53530991 90.59196943 105.55921555 92.93227768 C105.5907456 96.20512199 105.5909219 99.47655614 105.58349609 102.74951172 C105.59990143 103.71800049 105.61630676 104.68648926 105.63320923 105.68432617 C105.59330963 109.97449964 105.37617381 112.38529001 103.10220337 116.10121155 C98.64420864 118.8298492 94.91861616 118.69332687 89.78125 118.63110352 C88.24138428 118.64183647 88.24138428 118.64183647 86.67041016 118.65278625 C83.27981964 118.66968352 79.89054934 118.65026342 76.5 118.62890625 C74.14257701 118.62973485 71.78515408 118.63219387 69.42773438 118.63621521 C64.48810426 118.63907394 59.54892738 118.62436393 54.609375 118.59692383 C48.27720857 118.56284163 41.94585269 118.56885895 35.61364746 118.5875864 C30.74602502 118.59815417 25.87859123 118.58922045 21.01098633 118.57420158 C18.67619385 118.56901772 16.34138169 118.56950403 14.0065918 118.57574654 C10.7435468 118.58119578 7.48166273 118.56083133 4.21875 118.53344727 C3.25340332 118.53997314 2.28805664 118.54649902 1.29345703 118.55322266 C-2.83882885 118.49424535 -5.4121649 118.31458865 -9.10319519 116.33927917 C-11.51078144 113.37006677 -11.60752179 111.83607419 -11.56762695 108.03808594 C-11.5672493 106.83714294 -11.56687164 105.63619995 -11.56648254 104.39886475 C-11.54067612 103.10708313 -11.51486969 101.81530151 -11.48828125 100.484375 C-11.47895092 99.14489055 -11.47183584 97.80538899 -11.46684265 96.46588135 C-11.44778922 92.94731189 -11.39870564 89.42978125 -11.34332275 85.91162109 C-11.29209278 82.31882785 -11.2693208 78.72586604 -11.24414062 75.1328125 C-11.19058315 68.08811774 -11.10529231 61.04412683 -11 54 C-45.89103468 62.80019165 -45.89103468 62.80019165 -76.58203125 80.96875 C-78 82 -78 82 -80 82 C-80 82.66 -80 83.32 -80 84 C-80.66 84 -81.32 84 -82 84 C-82 84.66 -82 85.32 -82 86 C-83.423125 87.0828125 -83.423125 87.0828125 -84.875 88.1875 C-90.98742228 93.17031652 -94.83261356 100.40932446 -99 107 C-97.75283203 106.96519531 -97.75283203 106.96519531 -96.48046875 106.9296875 C-95.39378906 106.91164063 -94.30710937 106.89359375 -93.1875 106.875 C-91.56908203 106.84019531 -91.56908203 106.84019531 -89.91796875 106.8046875 C-87 107 -87 107 -84 109 C-84.57344937 111.86724686 -84.8614515 112.8614515 -87 115 C-88.485 114.505 -88.485 114.505 -90 114 C-88.515 113.01 -88.515 113.01 -87 112 C-86.505 110.515 -86.505 110.515 -86 109 C-88.48020497 109.11341491 -90.95844969 109.24014686 -93.4375 109.375 C-94.14455078 109.4059375 -94.85160156 109.436875 -95.58007812 109.46875 C-97.39239188 109.57280629 -99.19817988 109.77919892 -101 110 C-101.495 110.99 -101.495 110.99 -102 112 C-102.66 111.67 -103.32 111.34 -104 111 C-90.30323955 83.69208386 -67.42669413 68.30618343 -38.9375 58.75 C-18.33349575 52 -18.33349575 52 -11 52 C-11 48.04 -11 44.08 -11 40 C-12.00788574 40.01047363 -13.01577148 40.02094727 -14.05419922 40.03173828 C-17.83752816 40.06827484 -21.6208419 40.09102137 -25.40429688 40.10986328 C-27.03355543 40.1198449 -28.66279644 40.13343499 -30.29199219 40.15087891 C-39.13019953 40.24305653 -47.37408325 40.21311399 -56 38 C-56 37.67 -56 37.34 -56 37 C-55.20529297 37.03029297 -54.41058594 37.06058594 -53.59179688 37.09179688 C-32.3021758 37.91378367 -32.3021758 37.91378367 -11 38 C-11.17769481 36.06432346 -11.17769481 36.06432346 -12 34 C-13.90632282 32.64484544 -13.90632282 32.64484544 -16.25 31.625 C-20.73129371 29.29501316 -23.25127433 27.25609135 -26 23 C-26.3125 20.125 -26.3125 20.125 -26 18 C-22.49223216 16.39644899 -19.85645121 15.77963136 -16 16 C-16.495 12.535 -16.495 12.535 -17 9 C-16.278125 8.5875 -15.55625 8.175 -14.8125 7.75 C-11.94916269 6.0897176 -11.94916269 6.0897176 -9.625 3.8125 C-6.25554074 1.48596861 -4.00738586 1.68569523 0 2 C0 1.34 0 0.68 0 0 Z M53 51 C52.01 51.66 51.02 52.32 50 53 C50 50.69 50 48.38 50 46 C48.68 46 47.36 46 46 46 C46 46.66 46 47.32 46 48 C42.37 48.66 38.74 49.32 35 50 C35 66.17 35 82.34 35 99 C40.28 99 45.56 99 51 99 C51.04898438 96.59203125 51.09796875 94.1840625 51.1484375 91.703125 C51.20247488 89.36647421 51.25977147 87.02992445 51.31738281 84.69335938 C51.35562358 83.07169141 51.39048503 81.44994004 51.421875 79.828125 C51.46763257 77.49448883 51.52560816 75.16142438 51.5859375 72.828125 C51.59748871 72.10506165 51.60903992 71.38199829 51.62094116 70.63702393 C51.72783557 66.97660838 51.84300382 64.03738428 54 61 C57.0357225 58.976185 57.95772487 58.66225747 61.4375 58.5625 C62.19933594 58.52253906 62.96117187 58.48257813 63.74609375 58.44140625 C67.19957329 59.29729459 68.1103665 61.03776667 70 64 C70.41003076 66.83959136 70.60466223 69.30692253 70.609375 72.14453125 C70.62591125 72.91431808 70.64244751 73.68410492 70.65948486 74.47721863 C70.70785286 76.92239447 70.72930965 79.36694896 70.75 81.8125 C70.77816925 83.47594253 70.80809802 85.13935626 70.83984375 86.80273438 C70.91690581 90.86877219 70.95752342 94.93286718 71 99 C75.95 99 80.9 99 86 99 C89.18680214 73.68501347 89.18680214 73.68501347 82.5703125 50.70703125 C77.96382548 45.85551833 74.20542913 44.77943916 67.625 44.4375 C60.97931222 44.56646883 57.69807968 46.53335281 53 51 Z M7 51 C7 66.84 7 82.68 7 99 C12.28 99 17.56 99 23 99 C23 82.5 23 66 23 49 C17.6251615 49 12.32768988 50.28964135 7 51 Z " fill="#2866B0" transform="translate(216,72)"/>
<path d="M0 0 C6.08260302 2.43304121 8.0297287 8.97129369 10.546875 14.57421875 C11.5 17 11.5 17 11.5 19 C12.38042969 18.57847656 13.26085937 18.15695313 14.16796875 17.72265625 C15.32941406 17.17480469 16.49085937 16.62695312 17.6875 16.0625 C18.83605469 15.51722656 19.98460938 14.97195312 21.16796875 14.41015625 C24.03204345 13.19804492 26.42224334 12.34440261 29.5 12 C30.49 12.495 30.49 12.495 31.5 13 C31.94757548 19.54487421 30.79129853 23.53161811 27.6875 29.25 C27.33107422 29.94351563 26.97464844 30.63703125 26.60742188 31.3515625 C25.12383193 34.19352196 23.67751127 36.77281638 21.69921875 39.3046875 C21.30347656 39.86414062 20.90773438 40.42359375 20.5 41 C21.44048583 45.32623481 23.453229 49.09252808 25.5 53 C29.80191534 51.21262356 33.96087689 49.29158853 38.09375 47.14453125 C61.92766854 34.80196629 61.92766854 34.80196629 72.9375 37.625 C74.5 39 74.5 39 75.375 41.75 C75.51582026 45.41132673 75.07688784 47.69604453 73.5 51 C70.40094061 53.05683674 67.91559213 53.22146295 64.25 53.125 C62.91195312 53.09792969 62.91195312 53.09792969 61.546875 53.0703125 C60.87140625 53.04710937 60.1959375 53.02390625 59.5 53 C58.51 51.02 58.51 51.02 57.5 49 C55.91499412 49.9346695 54.33206584 50.87286263 52.75 51.8125 C51.86828125 52.33457031 50.9865625 52.85664062 50.078125 53.39453125 C47.50719234 54.93597921 47.50719234 54.93597921 45.296875 56.69921875 C43.5 58 43.5 58 41.5 58 C41.5 58.66 41.5 59.32 41.5 60 C40.695625 60.474375 39.89125 60.94875 39.0625 61.4375 C36.2081924 62.79983672 36.2081924 62.79983672 35.5 66 C36.90153807 68.03603192 36.90153807 68.03603192 38.875 70 C41.21473605 72.4609176 42.41217041 73.73651124 43.5 77 C44.985 77.495 44.985 77.495 46.5 78 C46.5 78.66 46.5 79.32 46.5 80 C47.11875 80.309375 47.7375 80.61875 48.375 80.9375 C49.75 81.625 51.125 82.3125 52.5 83 C52.5 83.66 52.5 84.32 52.5 85 C53.22316406 85.268125 53.94632812 85.53625 54.69140625 85.8125 C57.48187033 86.99233461 59.87945523 88.38354201 62.4375 90 C66.04535309 92.21109083 69.37563796 93.91464157 73.5 95 C73.5 95.66 73.5 96.32 73.5 97 C74.82 97.66 76.14 98.32 77.5 99 C56.00651502 96.04828349 39.08447661 75.84312334 26.8125 59.79296875 C20.28956767 50.63708197 16.34018825 39.81264649 13.5 29 C0.18627441 35.42613713 -12.31487383 42.27830663 -23.94873047 51.48193359 C-26.96948532 53.86517029 -30.00891139 56.02831595 -33.3125 58 C-34.364375 58.66 -35.41625 59.32 -36.5 60 C-36.5 60.66 -36.5 61.32 -36.5 62 C-35.84 62.66 -35.18 63.32 -34.5 64 C-37.47 64.99 -37.47 64.99 -40.5 66 C-40.66677282 69.41656024 -40.66677282 69.41656024 -40.5 73 C-38.71342243 75.21370051 -38.71342243 75.21370051 -36.3359375 75.1953125 C-35.52382813 75.17210938 -34.71171875 75.14890625 -33.875 75.125 C-33.05773438 75.10695313 -32.24046875 75.08890625 -31.3984375 75.0703125 C-30.77195313 75.04710938 -30.14546875 75.02390625 -29.5 75 C-29.5 75.66 -29.5 76.32 -29.5 77 C-31.27007714 77.08114106 -33.04122098 77.13925505 -34.8125 77.1875 C-35.79863281 77.22230469 -36.78476562 77.25710937 -37.80078125 77.29296875 C-40.5 77 -40.5 77 -42.3125 75.71875 C-44.17369303 73.02491798 -44.1982375 70.1986825 -44.5 67 C-48.78020526 67 -53.05842278 69.40361665 -57.01953125 70.90625 C-60.12528719 71.88224513 -62.29054663 72.24452978 -65.5 72 C-65.5 71.01 -65.5 70.02 -65.5 69 C-63.234375 67.24609375 -63.234375 67.24609375 -60.25 65.4375 C-59.27546875 64.83808594 -58.3009375 64.23867187 -57.296875 63.62109375 C-55.05989912 62.32452253 -52.83073369 61.11542255 -50.5 60 C-50.5 59.34 -50.5 58.68 -50.5 58 C-49.84 58 -49.18 58 -48.5 58 C-46.11794044 53.55348883 -45.14029699 50.59131646 -46.421875 45.64453125 C-47.86944838 39.00250896 -47.79261383 32.4595478 -47.75 25.6875 C-47.75773437 24.43904297 -47.76546875 23.19058594 -47.7734375 21.90429688 C-47.77085938 20.70224609 -47.76828125 19.50019531 -47.765625 18.26171875 C-47.76336914 17.17850342 -47.76111328 16.09528809 -47.75878906 14.97924805 C-47.49250986 11.91377156 -46.90197083 9.73124002 -45.5 7 C-41.00066806 5.02992923 -35.86543961 6.5079672 -31.1875 7.3125 C-29.96256836 7.50875977 -29.96256836 7.50875977 -28.71289062 7.70898438 C-23.56310149 8.55839183 -18.54671013 9.67008444 -13.5 11 C-12.81164063 10.18595703 -12.81164063 10.18595703 -12.109375 9.35546875 C-11.49578125 8.64003906 -10.8821875 7.92460937 -10.25 7.1875 C-9.64671875 6.47980469 -9.0434375 5.77210937 -8.421875 5.04296875 C-3.67782027 0 -3.67782027 0 0 0 Z M-42.5 63 C-42.83 63.66 -43.16 64.32 -43.5 65 C-42.51 64.67 -41.52 64.34 -40.5 64 C-41.16 63.67 -41.82 63.34 -42.5 63 Z " fill="#030102" transform="translate(68.5,6)"/>
<path d="M0 0 C0.20841974 4.33260429 -0.24172572 7.20243161 -2.0625 11.125 C-5.89716731 19.89923877 -8.96966889 28.92099104 -12 38 C-12.26458008 38.78874512 -12.52916016 39.57749023 -12.80175781 40.39013672 C-16.84075329 52.60719992 -19.61632863 65.00519228 -22.08422852 77.61694336 C-22.43892212 79.42110718 -22.43892212 79.42110718 -22.80078125 81.26171875 C-23.00872314 82.34412842 -23.21666504 83.42653809 -23.4309082 84.54174805 C-24 87 -24 87 -25 88 C-33.40236344 89.00828361 -42.49586969 85.75206515 -50 82 C-50.61808854 42.22996453 -50.61808854 42.22996453 -47.453125 26.34716797 C-46.95992868 23.79243228 -46.5568221 21.23095752 -46.15625 18.66015625 C-45.85721016 16.91874546 -45.55522928 15.17783659 -45.25 13.4375 C-45.06969238 12.24809814 -45.06969238 12.24809814 -44.88574219 11.03466797 C-44.29355159 7.98749309 -43.86087581 5.77764702 -41.50756836 3.65185547 C-29.741563 -3.43134765 -12.82174753 -4.15795689 0 0 Z " fill="#E0894F" transform="translate(192,21)"/>
<path d="M0 0 C2.72024065 1.19336228 3.58562906 2.64878832 5.1640625 5.14453125 C5.66164062 5.9128125 6.15921875 6.68109375 6.671875 7.47265625 C8.66727832 11.0073707 10.0390625 13.80137 10.0390625 17.89453125 C8.13447266 18.24064453 8.13447266 18.24064453 6.19140625 18.59375 C-12.03589566 22.00481109 -28.81971285 26.2576922 -42.9609375 38.89453125 C-43.6209375 38.89453125 -44.2809375 38.89453125 -44.9609375 38.89453125 C-45.01048461 34.83776633 -45.0467265 30.78111931 -45.07080078 26.72412109 C-45.08084003 25.3448581 -45.09447427 23.96561629 -45.11181641 22.58642578 C-45.13615504 20.60067985 -45.14637005 18.61477675 -45.15625 16.62890625 C-45.16672363 15.43491211 -45.17719727 14.24091797 -45.18798828 13.01074219 C-44.97128512 10.03654961 -44.52279872 8.39134746 -42.9609375 5.89453125 C-35.83514272 5.54861888 -29.40155871 6.85862823 -22.4609375 8.39453125 C-21.35234375 8.63300781 -20.24375 8.87148438 -19.1015625 9.1171875 C-16.38635371 9.70236181 -13.67299884 10.29496924 -10.9609375 10.89453125 C-10.3525 9.96511719 -9.7440625 9.03570312 -9.1171875 8.078125 C-3.51772304 -0.18920024 -3.51772304 -0.18920024 0 0 Z " fill="#45222A" transform="translate(67.9609375,8.10546875)"/>
<path d="M0 0 C1.6256807 0.30893932 3.25052748 0.6222695 4.875 0.9375 C5.77992187 1.11152344 6.68484375 1.28554687 7.6171875 1.46484375 C10 2 10 2 12 3 C13.47576307 3.04865153 14.95380182 3.03696523 16.4296875 2.9921875 C17.30753906 2.97542969 18.18539062 2.95867187 19.08984375 2.94140625 C20.93900997 2.89731673 22.788005 2.84529828 24.63671875 2.78515625 C25.95736328 2.76388672 25.95736328 2.76388672 27.3046875 2.7421875 C28.10890137 2.7201123 28.91311523 2.69803711 29.74169922 2.67529297 C32.53139906 3.07640657 33.89939483 4.17346521 36 6 C35.48776773 10.4051975 34.78040375 13.5020727 32 17 C24.08834571 23.17930561 16.1248193 24.22744404 6.3046875 24.75390625 C0.41830391 25.19225396 -1.89729811 25.77297381 -6 30 C-10.27972501 32.56783501 -14.00772613 33.72265145 -19 34 C-21.4375 33.0625 -21.4375 33.0625 -23 32 C-21.94124926 28.59687262 -20.99097846 25.98646769 -19 23 C-18.34 23 -17.68 23 -17 23 C-16.67 22.01 -16.34 21.02 -16 20 C-10.34488288 14.93744641 -4.42907557 12.89955404 3 12 C2.7834375 11.46890625 2.566875 10.9378125 2.34375 10.390625 C2.0653125 9.68421875 1.786875 8.9778125 1.5 8.25 C1.2215625 7.55390625 0.943125 6.8578125 0.65625 6.140625 C0 4 0 4 0 0 Z " fill="#EB9C2F" transform="translate(44,70)"/>
<path d="M0 0 C0.89299805 -0.00128906 1.78599609 -0.00257812 2.70605469 -0.00390625 C9.16756518 0.10506518 9.16756518 0.10506518 11.4375 2.375 C8.1375 3.695 4.8375 5.015 1.4375 6.375 C2.59378906 5.941875 2.59378906 5.941875 3.7734375 5.5 C4.77632812 5.12875 5.77921875 4.7575 6.8125 4.375 C7.81023437 4.00375 8.80796875 3.6325 9.8359375 3.25 C12.4375 2.375 12.4375 2.375 14.4375 2.375 C13.75599986 6.50272241 12.46337765 10.17239914 10.9375 14.0625 C10.27234375 15.76986328 10.27234375 15.76986328 9.59375 17.51171875 C8.4375 20.375 8.4375 20.375 7.4375 22.375 C6.4475 22.375 5.4575 22.375 4.4375 22.375 C5.0975 23.365 5.7575 24.355 6.4375 25.375 C3.38276337 26.58318664 0.31773936 27.76276392 -2.75 28.9375 C-3.61431641 29.27974609 -4.47863281 29.62199219 -5.36914062 29.97460938 C-6.21025391 30.29365234 -7.05136719 30.61269531 -7.91796875 30.94140625 C-8.68778076 31.23990479 -9.45759277 31.53840332 -10.25073242 31.84594727 C-15.28559664 32.99818623 -19.0684455 30.75115135 -23.375 28.3125 C-24.35082031 27.76464844 -25.32664063 27.21679688 -26.33203125 26.65234375 C-27.06808594 26.23082031 -27.80414063 25.80929688 -28.5625 25.375 C-26.63539294 12.70529613 -26.63539294 12.70529613 -24.5625 7.375 C-20.50643835 7.84300711 -17.09661321 8.25453208 -13.5625 10.375 C-13.5625 11.035 -13.5625 11.695 -13.5625 12.375 C-13.8925 12.705 -14.2225 13.035 -14.5625 13.375 C-13.758125 13.21 -12.95375 13.045 -12.125 12.875 C-9.5625 12.375 -9.5625 12.375 -8.5625 12.375 C-8.5625 11.715 -8.5625 11.055 -8.5625 10.375 C-9.8309375 10.2203125 -9.8309375 10.2203125 -11.125 10.0625 C-14.97692701 9.2921146 -18.00325031 8.01225486 -21.5625 6.375 C-21.5625 5.715 -21.5625 5.055 -21.5625 4.375 C-14.46487052 0.72851146 -7.84773866 -0.01121506 0 0 Z " fill="#F0A469" transform="translate(175.5625,20.625)"/>
<path d="M0 0 C4.97874064 0.47416578 8.06718758 1.9099331 12 5 C12 5.66 12 6.32 12 7 C11.01 7.66 10.02 8.32 9 9 C9.969375 8.525625 10.93875 8.05125 11.9375 7.5625 C13.859375 6.99609375 13.859375 6.99609375 16 7 C19.41048016 8.88263083 22.17429931 11.33621561 25 14 C25.74894531 14.67804687 26.49789062 15.35609375 27.26953125 16.0546875 C29 18 29 18 29 21 C28.38253906 21.12117188 27.76507813 21.24234375 27.12890625 21.3671875 C26.28199219 21.53476563 25.43507812 21.70234375 24.5625 21.875 C23.655 22.05417969 22.7475 22.23335937 21.8125 22.41796875 C18.49023512 23.10549301 15.19954749 23.90065862 11.91015625 24.73046875 C10 25 10 25 7 24 C8.67976229 25.85657938 10.1503033 27.08517187 12.34375 28.328125 C15.16086279 30.10124893 17.09654747 31.96281101 19.3125 34.4375 C20.00988281 35.19933594 20.70726562 35.96117187 21.42578125 36.74609375 C23 39 23 39 23 43 C9.30343448 47.67195732 9.30343448 47.67195732 3.93359375 46.10546875 C1.47924767 44.54934243 -0.29258807 43.35717703 -2 41 C-2.21875 38.40234375 -2.21875 38.40234375 -2 36 C-2 35.34 -2 34.68 -2 34 C-2 29.33333333 -2 24.66666667 -2 20 C-0.68 20 0.64 20 2 20 C1.01 19.67 0.02 19.34 -1 19 C-1.0272616 16.95840905 -1.04651345 14.91671037 -1.0625 12.875 C-1.07410156 11.73804688 -1.08570313 10.60109375 -1.09765625 9.4296875 C-1.005327 6.1870844 -0.61389906 3.18067388 0 0 Z " fill="#F0A569" transform="translate(146,48)"/>
<path d="M0 0 C-0.55954291 4.9015959 -2.05655419 8.56569923 -4.3125 12.9375 C-4.78345093 13.85619873 -4.78345093 13.85619873 -5.26391602 14.79345703 C-7.39831614 18.93019848 -9.61938583 23.00056819 -12 27 C-13.90389849 24.14415227 -14.69462177 22.0688238 -15.625 18.8125 C-16.01558594 17.46091797 -16.01558594 17.46091797 -16.4140625 16.08203125 C-16.60742188 15.39496094 -16.80078125 14.70789062 -17 14 C-30.31372559 20.42613713 -42.81487383 27.27830663 -54.44873047 36.48193359 C-57.46948532 38.86517029 -60.50891139 41.02831595 -63.8125 43 C-64.864375 43.66 -65.91625 44.32 -67 45 C-67 45.66 -67 46.32 -67 47 C-66.34 47.66 -65.68 48.32 -65 49 C-66.32 48.67 -67.64 48.34 -69 48 C-69 47.01 -69 46.02 -69 45 C-70.09699219 45.56589844 -71.19398437 46.13179687 -72.32421875 46.71484375 C-73.77848273 47.45604926 -75.23291893 48.19691695 -76.6875 48.9375 C-77.40873047 49.31068359 -78.12996094 49.68386719 -78.87304688 50.06835938 C-82.56505742 51.93965239 -85.83693096 53.48269556 -90 54 C-86.52516119 50.41657248 -82.8911781 47.14483651 -79.0625 43.94140625 C-76.8371532 41.93837883 -76.8371532 41.93837883 -74.6484375 39.0546875 C-67.07997178 29.80450062 -53.71915444 24.65421104 -43 20 C-41.82308594 19.48179688 -40.64617188 18.96359375 -39.43359375 18.4296875 C-36 17 -36 17 -32.98046875 16.109375 C-29.28653195 14.73443653 -26.41969518 12.6099337 -23.3125 10.25 C-6.66953596 -1.96162822 -6.66953596 -1.96162822 0 0 Z " fill="#40232A" transform="translate(99,21)"/>
<path d="M0 0 C2.8995023 -0.48325038 5.04371428 -0.53201811 7.6640625 0.92578125 C14.18651716 6.88595533 13.58786569 16.78144775 14 25 C14.05929688 26.15886719 14.11859375 27.31773437 14.1796875 28.51171875 C14.34713273 35.4793009 14.34713273 35.4793009 12 39 C8.89505874 39.31845551 6.98273923 38.99424641 4 38 C3.360625 38.185625 2.72125 38.37125 2.0625 38.5625 C0 39 0 39 -2.1875 38.1875 C-4 37 -4 37 -5 35 C-7.02463255 34.34786708 -7.02463255 34.34786708 -9 34 C-9.5927343 15.91062739 -9.5927343 15.91062739 -6 10 C-3.73587076 8.69080962 -1.46786665 7.91402468 1 7 C2.04289755 4.93109581 2.04289755 4.93109581 2 3 C1.34 2.67 0.68 2.34 0 2 C0 1.34 0 0.68 0 0 Z " fill="#F09F33" transform="translate(129,178)"/>
<path d="M0 0 C4.15725821 1.51863313 6.160879 4.51737565 8.625 8 C11.59851979 12.17506485 11.59851979 12.17506485 15 16 C9.56086672 21.08307264 3.9940991 25.92318726 -1.875 30.5 C-2.4218042 30.93296387 -2.9686084 31.36592773 -3.53198242 31.81201172 C-6.27034472 33.91818472 -8.5299261 35.53061802 -12 36 C-12.12375 34.88625 -12.2475 33.7725 -12.375 32.625 C-12.6465813 28.96896323 -12.6465813 28.96896323 -15 27 C-17.89223503 26.53603307 -17.89223503 26.53603307 -21.125 26.375 C-22.22070312 26.30023438 -23.31640625 26.22546875 -24.4453125 26.1484375 C-25.28835937 26.09945312 -26.13140625 26.05046875 -27 26 C-27 27.98 -27 29.96 -27 32 C-27.33 30.68 -27.66 29.36 -28 28 C-29.32 28.33 -30.64 28.66 -32 29 C-31.42547254 32.93075644 -31.42547254 32.93075644 -29 36 C-28.835 37.010625 -28.67 38.02125 -28.5 39.0625 C-28.335 40.031875 -28.17 41.00125 -28 42 C-23.42817487 44.28591257 -16.72578371 43.74568575 -11.88671875 42.421875 C-9.78595993 41.43222417 -7.93285754 40.29088511 -6 39 C-5.02417969 38.35546875 -4.04835938 37.7109375 -3.04296875 37.046875 C4.48418012 31.93948573 11.76641825 26.51316231 19 21 C19.66 21.33 20.32 21.66 21 22 C21.185625 22.9590625 21.185625 22.9590625 21.375 23.9375 C21.58125 24.618125 21.7875 25.29875 22 26 C22.60457031 26.29648438 23.20914063 26.59296875 23.83203125 26.8984375 C26.32956142 28.16745283 27.53892099 29.5329613 29.3125 31.6875 C36.68920365 40.38259323 44.98295317 47.83882363 54.16796875 54.578125 C56.68088693 56.52844956 58.8218401 58.68570511 61 61 C59.35 60.34 57.7 59.68 56 59 C52.74545013 76.89015479 52.74545013 76.89015479 52 95 C59.11136328 95.43342395 65.24801334 94.42071928 72.1171875 92.55859375 C74.91202758 92.01704615 76.36535303 92.03905388 79 93 C77.43979133 93.65134925 75.87671421 94.29582964 74.3125 94.9375 C73.00732422 95.47697266 73.00732422 95.47697266 71.67578125 96.02734375 C66.86497344 97.77608995 62.42067269 98.18010482 57.3125 98.25 C55.60513672 98.28867188 55.60513672 98.28867188 53.86328125 98.328125 C52.91839844 98.21984375 51.97351563 98.1115625 51 98 C46.98367258 91.97550887 49.11100224 84.50019019 50.421875 77.73046875 C50.70804688 76.31701172 50.70804688 76.31701172 51 74.875 C52.21416177 68.82880255 53.27390123 63.1798965 53 57 C52.34 56.67 51.68 56.34 51 56 C51 55.34 51 54.68 51 54 C50.4225 53.731875 49.845 53.46375 49.25 53.1875 C46.94449957 51.97070811 44.97943808 50.69666121 43 49 C43 48.34 43 47.68 43 47 C41.02 46.505 41.02 46.505 39 46 C39 45.34 39 44.68 39 44 C38.34 44 37.68 44 37 44 C35.375 42.625 35.375 42.625 34 41 C34 40.34 34 39.68 34 39 C33.401875 38.73960937 32.80375 38.47921875 32.1875 38.2109375 C29.85352153 36.91891371 28.66026805 35.69131187 27 33.625 C26.48695312 33.00882813 25.97390625 32.39265625 25.4453125 31.7578125 C24.96835938 31.17773438 24.49140625 30.59765625 24 30 C22.04283243 27.5366901 22.04283243 27.5366901 20 26 C15.98279196 26.35286287 13.09918772 28.81665917 9.875 31.0625 C4.21441125 35 4.21441125 35 2 35 C2 35.66 2 36.32 2 37 C-0.07952973 38.45062773 -2.13767881 39.7705499 -4.3125 41.0625 C-4.90740234 41.42666016 -5.50230469 41.79082031 -6.11523438 42.16601562 C-12.77175088 46.18967532 -18.31724269 46.72674731 -26 46 C-30.06261389 43.96869306 -30.7531584 42.74052479 -32.1875 38.4375 C-32.455625 37.303125 -32.72375 36.16875 -33 35 C-33.66 34.01 -34.32 33.02 -35 32 C-35.125 29.5 -35.125 29.5 -34 27 C-28.20722898 23.94562983 -22.50436431 23.14823801 -16 24 C-12.60859894 25.27783147 -12.10538065 25.81182027 -10.25 29.125 C-9.8375 30.07375 -9.425 31.0225 -9 32 C-8.51789062 31.6390625 -8.03578125 31.278125 -7.5390625 30.90625 C-6.90742187 30.4421875 -6.27578125 29.978125 -5.625 29.5 C-4.99851562 29.0359375 -4.37203125 28.571875 -3.7265625 28.09375 C-2 27 -2 27 0 27 C0 26.34 0 25.68 0 25 C1.8984375 23.34375 1.8984375 23.34375 4.375 21.5 C6.72904362 19.73633557 8.9191905 18.0808095 11 16 C10.66677734 15.55084229 10.33355469 15.10168457 9.99023438 14.63891602 C8.49103019 12.61525246 6.99547356 10.58892179 5.5 8.5625 C4.97535156 7.85544922 4.45070312 7.14839844 3.91015625 6.41992188 C3.41386719 5.74638672 2.91757812 5.07285156 2.40625 4.37890625 C1.94541016 3.7557251 1.48457031 3.13254395 1.00976562 2.49047852 C0 1 0 1 0 0 Z " fill="#244544" transform="translate(47,95)"/>
<path d="M0 0 C-0.33 0.99 -0.66 1.98 -1 3 C-0.72428861 5.00875442 -0.39764263 7.01178687 0 9 C-3.06246747 10.78409802 -5.22079273 11.22880021 -8.75 11.125 C-9.54921875 11.10695313 -10.3484375 11.08890625 -11.171875 11.0703125 C-11.77515625 11.04710937 -12.3784375 11.02390625 -13 11 C-12.67 9.02 -12.34 7.04 -12 5 C-21.9240802 10.68266833 -31.10229506 16.81281506 -40 24 C-42.66735273 21.51047079 -44.55746343 19.36591866 -46 16 C-12.57142857 -6.28571429 -12.57142857 -6.28571429 0 0 Z " fill="#4FA29B" transform="translate(141,46)"/>
<path d="M0 0 C0.24144255 4.54046125 -0.37988737 7.55860674 -2.25 11.6875 C-4.75127221 17.38127918 -6.93376043 23.13603517 -9 29 C-9.33 29 -9.66 29 -10 29 C-10.433125 27.6078125 -10.433125 27.6078125 -10.875 26.1875 C-11.8875 22.90208333 -11.8875 22.90208333 -14 20 C-11.525 20.99 -11.525 20.99 -9 22 C-8.82984375 21.39414062 -8.6596875 20.78828125 -8.484375 20.1640625 C-6.68433058 13.94050468 -4.50381567 7.97357039 -2 2 C-2.90363281 2.37253906 -3.80726563 2.74507812 -4.73828125 3.12890625 C-5.91777344 3.60199219 -7.09726563 4.07507813 -8.3125 4.5625 C-9.48425781 5.03816406 -10.65601563 5.51382812 -11.86328125 6.00390625 C-15 7 -15 7 -18 6 C-14.37 4.35 -10.74 2.7 -7 1 C-22.76470899 0.40876627 -22.76470899 0.40876627 -38 4 C-38 4.66 -38 5.32 -38 6 C-36.58398286 6.48108275 -35.16715563 6.95978141 -33.75 7.4375 C-32.96109375 7.70433594 -32.1721875 7.97117187 -31.359375 8.24609375 C-29.25178012 8.91954708 -27.15246027 9.49150595 -25 10 C-25 10.66 -25 11.32 -25 12 C-24.01 12.33 -23.02 12.66 -22 13 C-24 14 -24 14 -26.25 13.4375 C-29.68043426 12.8917491 -31.80971724 13.73872542 -35 15 C-33.625 13.5 -33.625 13.5 -32 12 C-31.34 12 -30.68 12 -30 12 C-30 11.34 -30 10.68 -30 10 C-33.63 9.01 -37.26 8.02 -41 7 C-41.58943673 10.3682099 -42.0994623 13.7299662 -42.5 17.125 C-42.85336173 19.86355337 -43.23121674 22.36417169 -44 25 C-42.68 25.99 -41.36 26.98 -40 28 C-41.98 27.67 -43.96 27.34 -46 27 C-45.98839844 28.03640625 -45.97679687 29.0728125 -45.96484375 30.140625 C-45.95546163 31.51041486 -45.94636188 32.88020668 -45.9375 34.25 C-45.92912109 34.93191406 -45.92074219 35.61382812 -45.91210938 36.31640625 C-45.89571608 39.69342554 -45.94371232 42.77291639 -47 46 C-45.68 46.33 -44.36 46.66 -43 47 C-44.485 47.495 -44.485 47.495 -46 48 C-46.66 47.67 -47.32 47.34 -48 47 C-48 51.62 -48 56.24 -48 61 C-47.34 61.33 -46.68 61.66 -46 62 C-46.66 63.98 -47.32 65.96 -48 68 C-47.195625 68.28875 -46.39125 68.5775 -45.5625 68.875 C-43 70 -43 70 -42 72 C-43.98 71.34 -45.96 70.68 -48 70 C-48 72.97 -48 75.94 -48 79 C-46.02 78.505 -46.02 78.505 -44 78 C-45.28965176 79.37562854 -46.62689293 80.70766393 -48 82 C-48.66 82 -49.32 82 -50 82 C-50.61808854 42.22996453 -50.61808854 42.22996453 -47.453125 26.34716797 C-46.95992868 23.79243228 -46.5568221 21.23095752 -46.15625 18.66015625 C-45.85721016 16.91874546 -45.55522928 15.17783659 -45.25 13.4375 C-45.06969238 12.24809814 -45.06969238 12.24809814 -44.88574219 11.03466797 C-44.29355159 7.98749309 -43.86087581 5.77764702 -41.50756836 3.65185547 C-29.741563 -3.43134765 -12.82174753 -4.15795689 0 0 Z " fill="#DD844A" transform="translate(192,21)"/>
<path d="M0 0 C0.53109375 0.23847656 1.0621875 0.47695313 1.609375 0.72265625 C1.609375 1.38265625 1.609375 2.04265625 1.609375 2.72265625 C0.949375 3.05265625 0.289375 3.38265625 -0.390625 3.72265625 C0.41375 4.01140625 1.218125 4.30015625 2.046875 4.59765625 C4.609375 5.72265625 4.609375 5.72265625 5.609375 7.72265625 C6.21958735 13.82477978 4.59372633 17.59330241 1.609375 22.72265625 C0.949375 22.39265625 0.289375 22.06265625 -0.390625 21.72265625 C0.599375 20.07265625 1.589375 18.42265625 2.609375 16.72265625 C1.805 16.57828125 1.000625 16.43390625 0.171875 16.28515625 C-2.390625 15.72265625 -2.390625 15.72265625 -3.390625 14.72265625 C-3.765625 12.34765625 -3.765625 12.34765625 -3.390625 9.72265625 C-0.890625 7.91015625 -0.890625 7.91015625 1.609375 6.72265625 C-1.59433211 6.134839 -1.59433211 6.134839 -5.390625 6.72265625 C-7.41158272 8.26450762 -8.99335073 9.95547845 -10.6796875 11.85546875 C-12.29293311 13.61604273 -13.89676367 14.89784037 -15.828125 16.28515625 C-18.70799566 18.51517718 -18.70799566 18.51517718 -18.828125 21.97265625 C-18.68175896 24.62726483 -18.68175896 24.62726483 -17.390625 25.72265625 C-15.37098301 25.79509678 -13.34895376 25.80642813 -11.328125 25.78515625 C-10.22339844 25.77613281 -9.11867188 25.76710938 -7.98046875 25.7578125 C-6.69849609 25.74041016 -6.69849609 25.74041016 -5.390625 25.72265625 C-7.87315322 28.20518447 -9.93304838 28.40146397 -13.35546875 28.76171875 C-17.36235565 28.68481113 -19.68667256 26.42660869 -22.390625 23.72265625 C-24.49883297 24.04117395 -24.49883297 24.04117395 -26.390625 24.72265625 C-27.050625 23.07265625 -27.710625 21.42265625 -28.390625 19.72265625 C-29.48721436 23.01242433 -29.19015638 24.43569392 -28.390625 27.72265625 C-29.82395521 28.11329132 -31.26255179 28.48464099 -32.703125 28.84765625 C-33.90388672 29.16089844 -33.90388672 29.16089844 -35.12890625 29.48046875 C-37.390625 29.72265625 -37.390625 29.72265625 -40.390625 27.72265625 C-39.28800247 24.41478866 -38.84172771 24.06812651 -36.07421875 22.234375 C-35.05775269 21.55048706 -35.05775269 21.55048706 -34.02075195 20.8527832 C-33.29718506 20.37671631 -32.57361816 19.90064941 -31.828125 19.41015625 C-30.35066523 18.41930537 -28.87409046 17.42713348 -27.3984375 16.43359375 C-26.69493164 15.96147461 -25.99142578 15.48935547 -25.26660156 15.00292969 C-23.18700233 13.58369252 -21.18477188 12.08787524 -19.203125 10.53515625 C-15.79649972 7.94398713 -12.24602397 5.58837053 -8.640625 3.28515625 C-7.00867188 2.23521484 -7.00867188 2.23521484 -5.34375 1.1640625 C-2.390625 -0.27734375 -2.390625 -0.27734375 0 0 Z " fill="#488580" transform="translate(71.390625,40.27734375)"/>
<path d="M0 0 C1.5625 1.375 1.5625 1.375 2.4375 4.125 C2.57832026 7.78632673 2.13938784 10.07104453 0.5625 13.375 C-2.53655939 15.43183674 -5.02190787 15.59646295 -8.6875 15.5 C-9.57953125 15.48195313 -10.4715625 15.46390625 -11.390625 15.4453125 C-12.06609375 15.42210938 -12.7415625 15.39890625 -13.4375 15.375 C-14.0975 14.055 -14.7575 12.735 -15.4375 11.375 C-17.02250588 12.3096695 -18.60543416 13.24786263 -20.1875 14.1875 C-21.06921875 14.70957031 -21.9509375 15.23164062 -22.859375 15.76953125 C-25.43030766 17.31097921 -25.43030766 17.31097921 -27.640625 19.07421875 C-29.4375 20.375 -29.4375 20.375 -31.4375 20.375 C-31.4375 21.035 -31.4375 21.695 -31.4375 22.375 C-32.241875 22.849375 -33.04625 23.32375 -33.875 23.8125 C-36.7293076 25.17483672 -36.7293076 25.17483672 -37.4375 28.375 C-36.03596193 30.41103192 -36.03596193 30.41103192 -34.0625 32.375 C-31.72276395 34.8359176 -30.52532959 36.11151124 -29.4375 39.375 C-27.9525 39.87 -27.9525 39.87 -26.4375 40.375 C-26.4375 41.035 -26.4375 41.695 -26.4375 42.375 C-25.81875 42.684375 -25.2 42.99375 -24.5625 43.3125 C-23.1875 44 -21.8125 44.6875 -20.4375 45.375 C-20.4375 46.035 -20.4375 46.695 -20.4375 47.375 C-19.71433594 47.643125 -18.99117187 47.91125 -18.24609375 48.1875 C-15.45562967 49.36733461 -13.05804477 50.75854201 -10.5 52.375 C-6.89214691 54.58609083 -3.56186204 56.28964157 0.5625 57.375 C0.5625 58.035 0.5625 58.695 0.5625 59.375 C1.8825 60.035 3.2025 60.695 4.5625 61.375 C-15.89231594 58.5659247 -32.65336831 39.7166054 -44.4375 24.375 C-48.50720282 18.85829174 -52.41037449 12.98762321 -54.4375 6.375 C-54.1075 5.715 -53.7775 5.055 -53.4375 4.375 C-50.94860752 7.94241255 -48.88794271 11.26541233 -47.4375 15.375 C-43.13558466 13.58762356 -38.97662311 11.66658853 -34.84375 9.51953125 C-11.00983146 -2.82303371 -11.00983146 -2.82303371 0 0 Z M-46.4375 18.375 C-44.7875 21.015 -43.1375 23.655 -41.4375 26.375 C-37.08959825 23.90233832 -33.17617841 20.99869176 -29.1875 18 C-23.7964181 13.98817007 -18.44204252 10.42994268 -12.4375 7.375 C-12.7675 9.355 -13.0975 11.335 -13.4375 13.375 C-12.02126784 13.42947047 -10.60441809 13.46800508 -9.1875 13.5 C-8.00414062 13.53480469 -8.00414062 13.53480469 -6.796875 13.5703125 C-4.23018059 13.3578378 -2.6458933 12.66154105 -0.4375 11.375 C-0.623125 10.446875 -0.80875 9.51875 -1 8.5625 C-1.4375 5.375 -1.4375 5.375 -0.4375 2.375 C-13.41544512 -4.11397256 -35.81597714 11.29398476 -46.4375 18.375 Z " fill="#264745" transform="translate(141.4375,43.625)"/>
<path d="M0 0 C3.95403662 0.26360244 5.65370756 0.86143155 8.75 3.25 C11.26250583 7.01875875 11.28016086 8.78150134 10.75 13.25 C8.84932 16.4573975 7.38156918 18.59000179 3.84765625 20.01953125 C0.79681114 20.64609637 -1.28963477 20.77985668 -4.0625 19.25 C-7.65325155 16.3497776 -9.10995841 14.48703404 -9.625 9.9375 C-9.15786625 5.34401813 -7.72959782 4.13552015 -4.25 1.25 C-3.25 0.25 -3.25 0.25 0 0 Z " fill="#E89D39" transform="translate(230.25,89.75)"/>
<path d="M0 0 C0.66 0.66 1.32 1.32 2 2 C0.02 2.66 -1.96 3.32 -4 4 C-4 5.65 -4 7.3 -4 9 C-2.35 9.66 -0.7 10.32 1 11 C0.00261116 14.59059983 -0.88720756 15.91172765 -3.875 18.25 C-9.08399645 21.16703801 -13.09009873 21.28596296 -19 21 C-21 19 -21 19 -21.53515625 16.3046875 C-20.7445948 11.42282626 -18.02288072 9.33622245 -14.4375 6.125 C-13.52387695 5.23554687 -13.52387695 5.23554687 -12.59179688 4.328125 C-8.47161678 0.54366329 -5.81754728 -0.93483454 0 0 Z " fill="#F8F8F8" transform="translate(73,46)"/>
<path d="M0 0 C-2.92156464 2.92156464 -6.45141239 3.09195277 -10.375 3.875 C-17.78646127 5.44221677 -24.90203838 7.3145546 -32 10 C-32.94746094 10.35707031 -33.89492187 10.71414062 -34.87109375 11.08203125 C-45.63621387 15.35662742 -56.62843498 20.53706744 -65.58203125 27.96875 C-67 29 -67 29 -69 29 C-69 29.66 -69 30.32 -69 31 C-69.66 31 -70.32 31 -71 31 C-71 31.66 -71 32.32 -71 33 C-71.94875 33.721875 -72.8975 34.44375 -73.875 35.1875 C-79.98742228 40.17031652 -83.83261356 47.40932446 -88 54 C-87.16855469 53.97679687 -86.33710937 53.95359375 -85.48046875 53.9296875 C-83.85044922 53.90261719 -83.85044922 53.90261719 -82.1875 53.875 C-81.10855469 53.85179687 -80.02960938 53.82859375 -78.91796875 53.8046875 C-76 54 -76 54 -73 56 C-73.57344937 58.86724686 -73.8614515 59.8614515 -76 62 C-77.485 61.505 -77.485 61.505 -79 61 C-78.01 60.34 -77.02 59.68 -76 59 C-75.67 58.01 -75.34 57.02 -75 56 C-77.48020497 56.11341491 -79.95844969 56.24014686 -82.4375 56.375 C-83.14455078 56.4059375 -83.85160156 56.436875 -84.58007812 56.46875 C-86.39239188 56.57280629 -88.19817988 56.77919892 -90 57 C-90.33 57.66 -90.66 58.32 -91 59 C-91.66 58.67 -92.32 58.34 -93 58 C-78.57815234 29.24644123 -54.43770516 14.64966144 -24.70166016 4.66381836 C-16.66450571 2.05111495 -8.53344089 -0.44912847 0 0 Z " fill="#264947" transform="translate(205,125)"/>
<path d="M0 0 C-0.33 9.24 -0.66 18.48 -1 28 C-7.82652102 25.07434814 -11.8850577 23.17241344 -16 17 C-16.125 14.3125 -16.125 14.3125 -16 12 C-12.49223216 10.39644899 -9.85645121 9.77963136 -6 10 C-6.33 7.69 -6.66 5.38 -7 3 C-2.25 0 -2.25 0 0 0 Z " fill="#F09F32" transform="translate(206,78)"/>
<path d="M0 0 C-0.49869404 5.36891879 -1.02227532 10.69235173 -2 16 C-7.59554553 16.29105568 -11.77000574 15.37632274 -16.9375 13.5 C-17.62134766 13.26152344 -18.30519531 13.02304688 -19.00976562 12.77734375 C-20.67658097 12.19454118 -22.33880316 11.59862949 -24 11 C-22.88809524 7.66428571 -22.53679327 7.41582921 -19.625 5.8125 C-18.71621094 5.29623047 -18.71621094 5.29623047 -17.7890625 4.76953125 C-16 4 -16 4 -13 4 C-11.64664105 3.02727325 -10.31337396 2.0260734 -9 1 C-5.8035914 -0.06546953 -3.34252724 -0.07427838 0 0 Z " fill="#E99F65" transform="translate(168,93)"/>
<path d="M0 0 C2.12890625 0.40625 2.12890625 0.40625 4.69140625 1.84375 C6.83585832 5.6664689 7.03077876 9.13215853 6.12890625 13.40625 C3.57719728 16.48331081 2.06631857 17.26954404 -1.87109375 17.84375 C-5.46721518 17.31931563 -7.20408403 16.92085916 -9.87109375 14.40625 C-11.33213749 9.99763547 -11.40109994 6.58671832 -9.49609375 2.34375 C-6.18610051 -0.09934025 -4.04011571 -0.26623497 0 0 Z M-3.87109375 2.40625 C-4.53109375 3.06625 -5.19109375 3.72625 -5.87109375 4.40625 C-3.56109375 4.40625 -1.25109375 4.40625 1.12890625 4.40625 C0.79890625 3.74625 0.46890625 3.08625 0.12890625 2.40625 C-1.19109375 2.40625 -2.51109375 2.40625 -3.87109375 2.40625 Z M-6.87109375 4.40625 C-8.28686852 5.59049326 -8.28686852 5.59049326 -7.93359375 8.96875 C-7.91296875 10.103125 -7.89234375 11.2375 -7.87109375 12.40625 C-7.21109375 12.40625 -6.55109375 12.40625 -5.87109375 12.40625 C-5.87109375 9.76625 -5.87109375 7.12625 -5.87109375 4.40625 C-6.20109375 4.40625 -6.53109375 4.40625 -6.87109375 4.40625 Z M2.12890625 5.40625 C1.79890625 7.38625 1.46890625 9.36625 1.12890625 11.40625 C2.11890625 11.40625 3.10890625 11.40625 4.12890625 11.40625 C4.12890625 9.75625 4.12890625 8.10625 4.12890625 6.40625 C3.46890625 6.07625 2.80890625 5.74625 2.12890625 5.40625 Z M-2.87109375 11.40625 C-2.87109375 12.06625 -2.87109375 12.72625 -2.87109375 13.40625 C-3.86109375 13.90125 -3.86109375 13.90125 -4.87109375 14.40625 C-2.89109375 14.40625 -0.91109375 14.40625 1.12890625 14.40625 C-0.19109375 13.41625 -1.51109375 12.42625 -2.87109375 11.40625 Z " fill="#2867B2" transform="translate(335.87109375,173.59375)"/>
<path d="M0 0 C2.8995023 -0.48325038 5.04371428 -0.53201811 7.6640625 0.92578125 C14.18651716 6.88595533 13.58786569 16.78144775 14 25 C14.05929688 26.15886719 14.11859375 27.31773437 14.1796875 28.51171875 C14.34713273 35.4793009 14.34713273 35.4793009 12 39 C8.89505874 39.31845551 6.98273923 38.99424641 4 38 C3.360625 38.185625 2.72125 38.37125 2.0625 38.5625 C0 39 0 39 -2.1875 38.1875 C-4 37 -4 37 -5 35 C-7.02463255 34.34786708 -7.02463255 34.34786708 -9 34 C-9.55353075 17.1070615 -9.55353075 17.1070615 -6 10 C-4.85904956 13.42285131 -5.25431265 14.54449457 -6 18 C-6.21698487 20.43505237 -6.40290745 22.87301384 -6.5625 25.3125 C-6.64628906 26.56675781 -6.73007813 27.82101563 -6.81640625 29.11328125 C-6.87699219 30.06589844 -6.93757813 31.01851562 -7 32 C-6.38125 32.103125 -5.7625 32.20625 -5.125 32.3125 C-3 33 -3 33 -1 36 C1.89608399 36.36498034 1.89608399 36.36498034 5.125 36.1875 C6.22070312 36.16042969 7.31640625 36.13335937 8.4453125 36.10546875 C9.28835937 36.07066406 10.13140625 36.03585938 11 36 C10.91883144 31.79089445 10.80600954 27.5832067 10.6875 23.375 C10.66494141 22.18519531 10.64238281 20.99539062 10.61914062 19.76953125 C10.52542704 11.39996248 10.52542704 11.39996248 7 4 C3.4306283 2.55032098 3.4306283 2.55032098 0 2 C0 1.34 0 0.68 0 0 Z " fill="#DE860A" transform="translate(129,178)"/>
<path d="M0 0 C-1.65 5.28 -3.3 10.56 -5 16 C-9.70133003 12.57360692 -14.01437117 9.23473064 -18 5 C-16.06305322 4.18618205 -14.12542289 3.37399084 -12.1875 2.5625 C-11.10855469 2.11003906 -10.02960938 1.65757813 -8.91796875 1.19140625 C-3.3032491 -1.10108303 -3.3032491 -1.10108303 0 0 Z " fill="#F1A66A" transform="translate(181,49)"/>
<path d="M0 0 C-1.32 0.99 -2.64 1.98 -4 3 C-3.42547254 6.93075644 -3.42547254 6.93075644 -1 10 C-3.5853343 12.48192093 -4.92643811 12.99225664 -8.5625 13.375 C-12 13 -12 13 -13.9375 11.9375 C-15.55479605 8.98831309 -15.18630138 6.29132441 -15 3 C-13.75108386 2.51801537 -12.50081192 2.03954323 -11.25 1.5625 C-10.55390625 1.29566406 -9.8578125 1.02882813 -9.140625 0.75390625 C-3.59627329 -1.19875776 -3.59627329 -1.19875776 0 0 Z " fill="#F2F2F2" transform="translate(42,69)"/>
<path d="M0 0 C-0.28484846 1.73030291 -0.57819938 3.45920714 -0.875 5.1875 C-1.03742188 6.15042969 -1.19984375 7.11335938 -1.3671875 8.10546875 C-1.98039517 10.91032604 -2.85666343 13.37224747 -4 16 C-4.680625 15.29875 -5.36125 14.5975 -6.0625 13.875 C-9.20780513 10.72065663 -12.5888386 7.86065696 -16 5 C-13.20083611 3.13389074 -11.18061731 2.31214617 -8 1.375 C-6.700625 0.98441406 -6.700625 0.98441406 -5.375 0.5859375 C-3 0 -3 0 0 0 Z " fill="#F1A569" transform="translate(174,70)"/>
<path d="M0 0 C-0.49869404 5.36891879 -1.02227532 10.69235173 -2 16 C-5.4180305 14.8606565 -6.00348178 14.02589085 -8.0625 11.1875 C-8.56910156 10.50042969 -9.07570312 9.81335938 -9.59765625 9.10546875 C-10.91619283 7.12582747 -11.98998171 5.15051741 -13 3 C-8.37802694 0.78145293 -5.23175837 -0.38281159 0 0 Z " fill="#F1A569" transform="translate(168,93)"/>
<path d="M0 0 C1.32 0 2.64 0 4 0 C4 1.32 4 2.64 4 4 C4.928125 4.4640625 4.928125 4.4640625 5.875 4.9375 C7.25 5.625 8.625 6.3125 10 7 C10 4.69 10 2.38 10 0 C10.33 0 10.66 0 11 0 C11.33 1.98 11.66 3.96 12 6 C12.99 6 13.98 6 15 6 C15 4.35 15 2.7 15 1 C15.99 1.66 16.98 2.32 18 3 C18.22265625 5.09375 18.22265625 5.09375 18.0625 7.5 C17.87085949 9.85335636 17.87085949 9.85335636 18 12 C18.66 12.66 19.32 13.32 20 14 C19.34 13.835 18.68 13.67 18 13.5 C14.26900206 12.87816701 10.78126622 12.93591074 7 13 C6.67 12.34 6.34 11.68 6 11 C8.97 11 11.94 11 15 11 C14.67 10.34 14.34 9.68 14 9 C12.87851562 9.08701172 12.87851562 9.08701172 11.734375 9.17578125 C3.66657485 9.54537942 3.66657485 9.54537942 0.25 6.75 C-1 4 -1 4 -0.75 1.6875 C-0.5025 1.130625 -0.255 0.57375 0 0 Z " fill="#336461" transform="translate(15,123)"/>
<path d="M0 0 C-2.75130995 2.11350628 -5.57036179 4.0188936 -8.5 5.875 C-13.49281689 9.18714782 -16.38693045 12.63811702 -19 18 C-12.54935384 16.97608791 -8.32246373 15.28412658 -3.04296875 11.4375 C1.19135438 8.45809099 3.52494446 7.75296958 8.75 8.375 C10.22726563 8.54128906 10.22726563 8.54128906 11.734375 8.7109375 C12.48203125 8.80632812 13.2296875 8.90171875 14 9 C14 9.33 14 9.66 14 10 C13.03578125 10.09796875 12.0715625 10.1959375 11.078125 10.296875 C9.81484375 10.44640625 8.5515625 10.5959375 7.25 10.75 C5.99703125 10.88921875 4.7440625 11.0284375 3.453125 11.171875 C-0.35882308 12.08605259 -1.51536399 13.07590456 -4 16 C-8.27972501 18.56783501 -12.00772613 19.72265145 -17 20 C-19.4375 19.0625 -19.4375 19.0625 -21 18 C-19.94124926 14.59687262 -18.99097846 11.98646769 -17 9 C-16.34 9 -15.68 9 -15 9 C-14.67 8.01 -14.34 7.02 -14 6 C-12.109375 4.39453125 -12.109375 4.39453125 -9.75 2.8125 C-8.98171875 2.28269531 -8.2134375 1.75289063 -7.421875 1.20703125 C-4.71739351 -0.14084743 -2.98082211 -0.23783155 0 0 Z " fill="#DE860B" transform="translate(42,84)"/>
<path d="M0 0 C0.66 0.33 1.32 0.66 2 1 C1.67 1.33 1.34 1.66 1 2 C2.2065625 2.433125 2.2065625 2.433125 3.4375 2.875 C6 4 6 4 7 6 C7.61021235 12.10212353 5.98435133 15.87064616 3 21 C2.34 20.67 1.68 20.34 1 20 C1.99 18.35 2.98 16.7 4 15 C3.195625 14.855625 2.39125 14.71125 1.5625 14.5625 C-1 14 -1 14 -2 13 C-2.375 10.625 -2.375 10.625 -2 8 C0.5 6.1875 0.5 6.1875 3 5 C0.69 4.67 -1.62 4.34 -4 4 C-2.68 2.68 -1.36 1.36 0 0 Z " fill="#3D4645" transform="translate(70,42)"/>
<path d="M0 0 C0.50512244 1.60256108 1.00391627 3.20711792 1.5 4.8125 C1.7784375 5.70582031 2.056875 6.59914063 2.34375 7.51953125 C3 10 3 10 3 13 C0.09399739 14.25664978 -1.79604584 15 -5 15 C-4.773125 14.236875 -4.54625 13.47375 -4.3125 12.6875 C-4.209375 11.800625 -4.10625 10.91375 -4 10 C-4.495 9.505 -4.99 9.01 -5.5 8.5 C-5.995 8.005 -6.49 7.51 -7 7 C-7 4.4375 -7 4.4375 -6 2 C-2.19047619 0 -2.19047619 0 0 0 Z " fill="#3C2727" transform="translate(44,69)"/>
<path d="M0 0 C0.33 1.65 0.66 3.3 1 5 C0.01 5.33 -0.98 5.66 -2 6 C-2.16677282 9.41656024 -2.16677282 9.41656024 -2 13 C-0.21342243 15.21370051 -0.21342243 15.21370051 2.1640625 15.1953125 C2.97617187 15.17210938 3.78828125 15.14890625 4.625 15.125 C5.44226563 15.10695313 6.25953125 15.08890625 7.1015625 15.0703125 C7.72804688 15.04710938 8.35453125 15.02390625 9 15 C9 15.66 9 16.32 9 17 C7.22992286 17.08114106 5.45877902 17.13925505 3.6875 17.1875 C2.70136719 17.22230469 1.71523438 17.25710937 0.69921875 17.29296875 C-2 17 -2 17 -3.8125 15.71875 C-5.67369303 13.02491798 -5.6982375 10.1986825 -6 7 C-8.35472011 6.87440062 -8.35472011 6.87440062 -11.6875 8.5 C-15.67366796 10.05220069 -18.75266833 10.26545823 -23 10 C-21 8 -21 8 -18.82421875 7.59765625 C-15.16176469 6.82261411 -12.09490557 5.16959489 -8.8125 3.4375 C-2.25366928 0 -2.25366928 0 0 0 Z M-4 3 C-4.33 3.66 -4.66 4.32 -5 5 C-4.01 4.67 -3.02 4.34 -2 4 C-2.66 3.67 -3.32 3.34 -4 3 Z " fill="#070404" transform="translate(30,66)"/>
<path d="M0 0 C0 0.66 0 1.32 0 2 C-1.98 2.99 -1.98 2.99 -4 4 C-4 6.31 -4 8.62 -4 11 C-5.093125 11.28875 -6.18625 11.5775 -7.3125 11.875 C-11.04013845 12.81893204 -11.04013845 12.81893204 -14 15 C-10.27450216 20.00613773 -6.42841405 22.95577773 -1 26 C-1.33 26.66 -1.66 27.32 -2 28 C-7.86376456 25.11283052 -12.40687759 22.56354438 -16 17 C-16.3125 14.125 -16.3125 14.125 -16 12 C-12.49223216 10.39644899 -9.85645121 9.77963136 -6 10 C-6.33 7.69 -6.66 5.38 -7 3 C-2.25 0 -2.25 0 0 0 Z " fill="#DD860B" transform="translate(206,78)"/>
<path d="M0 0 C0.66 0.33 1.32 0.66 2 1 C1.67 1.99 1.34 2.98 1 4 C1.39397335 6.63804589 1.39397335 6.63804589 2 9 C0.56666979 9.39063507 -0.87192679 9.76198474 -2.3125 10.125 C-3.51326172 10.43824219 -3.51326172 10.43824219 -4.73828125 10.7578125 C-7 11 -7 11 -10 9 C-8.77946141 5.33838422 -7.63217696 4.83729526 -4.4375 2.8125 C-3.61121094 2.28269531 -2.78492188 1.75289062 -1.93359375 1.20703125 C-1.29550781 0.80871094 -0.65742187 0.41039062 0 0 Z " fill="#4C8E88" transform="translate(41,59)"/>
<path d="M0 0 C0.66 0.33 1.32 0.66 2 1 C2 1.33 2 1.66 2 2 C2.99 2.33 3.98 2.66 5 3 C2.43964079 4.46220279 -0.1231356 5.91985153 -2.6875 7.375 C-3.7693457 7.99375 -3.7693457 7.99375 -4.87304688 8.625 C-8.51007651 10.68432272 -12.05233788 12.58289052 -16 14 C-13.33333333 11.33333333 -10.66666667 8.66666667 -8 6 C-8.33 5.34 -8.66 4.68 -9 4 C-8.43410156 3.79503906 -7.86820313 3.59007812 -7.28515625 3.37890625 C-6.55167969 3.10949219 -5.81820312 2.84007812 -5.0625 2.5625 C-4.33160156 2.29566406 -3.60070312 2.02882812 -2.84765625 1.75390625 C-1.01694322 1.14613052 -1.01694322 1.14613052 0 0 Z " fill="#291B1F" transform="translate(70,35)"/>
<path d="M0 0 C5.94 0 11.88 0 18 0 C17.67 0.99 17.34 1.98 17 3 C11.27959989 3.8320582 5.77759884 4.12036664 0 4 C0 2.68 0 1.36 0 0 Z " fill="#49969B" transform="translate(222,117)"/>
<path d="M0 0 C3.96 0 7.92 0 12 0 C12 0.99 12 1.98 12 3 C8.91111478 5.05925681 8.29064073 5.2390374 4.8125 5.125 C2.9253125 5.063125 2.9253125 5.063125 1 5 C0.67 3.35 0.34 1.7 0 0 Z " fill="#D18D2D" transform="translate(250,117)"/>
<path d="M0 0 C1.73056641 0.11794922 1.73056641 0.11794922 3.49609375 0.23828125 C6.5625 0.6875 6.5625 0.6875 9.5625 2.6875 C8.98905063 5.55474686 8.7010485 6.5489515 6.5625 8.6875 C5.5725 8.3575 4.5825 8.0275 3.5625 7.6875 C4.5525 7.0275 5.5425 6.3675 6.5625 5.6875 C6.8925 4.6975 7.2225 3.7075 7.5625 2.6875 C5.08229503 2.80091491 2.60405031 2.92764686 0.125 3.0625 C-0.58205078 3.0934375 -1.28910156 3.124375 -2.01757812 3.15625 C-3.82989188 3.26030629 -5.63567988 3.46669892 -7.4375 3.6875 C-7.7675 4.3475 -8.0975 5.0075 -8.4375 5.6875 C-9.0975 5.3575 -9.7575 5.0275 -10.4375 4.6875 C-7.95525591 -0.80889763 -5.81394771 -0.43426365 0 0 Z " fill="#335149" transform="translate(122.4375,178.3125)"/>
<path d="M0 0 C4.19174654 1.04793663 5.21592961 1.91763635 8 5 C2.25 9 2.25 9 0 9 C0 6.03 0 3.06 0 0 Z " fill="#F1A569" transform="translate(144,91)"/>
<path d="M0 0 C3.80382181 2.5358812 4.34563489 4.85842419 5.9375 9.00390625 C6.89010706 11.34606344 6.89010706 11.34606344 10 12 C9.67 12.99 9.34 13.98 9 15 C10.37168238 17.19038423 10.37168238 17.19038423 12 19 C11.67 19.66 11.34 20.32 11 21 C7.74938427 17.22439544 5.42009224 13.26910575 3.25 8.8125 C2.93417969 8.18408203 2.61835937 7.55566406 2.29296875 6.90820312 C0 2.26767113 0 2.26767113 0 0 Z " fill="#2A5250" transform="translate(87,48)"/>
<path d="M0 0 C-9.07779188 3.92701258 -16.17229814 5.44852749 -26 4 C-26 3.67 -26 3.34 -26 3 C-25.44014404 2.91435791 -24.88028809 2.82871582 -24.3034668 2.74047852 C-21.76438792 2.35051939 -19.22594632 1.95655484 -16.6875 1.5625 C-15.80642578 1.42779297 -14.92535156 1.29308594 -14.01757812 1.15429688 C-13.17001953 1.02216797 -12.32246094 0.89003906 -11.44921875 0.75390625 C-10.27879028 0.57323608 -10.27879028 0.57323608 -9.0847168 0.38891602 C-2.62807197 -0.81560854 -2.62807197 -0.81560854 0 0 Z " fill="#2B4842" transform="translate(126,188)"/>
<path d="M0 0 C1.5 1.3125 1.5 1.3125 3 3 C3 3.99 3 4.98 3 6 C0.09399739 7.25664978 -1.79604584 8 -5 8 C-4.814375 7.21625 -4.62875 6.4325 -4.4375 5.625 C-3.74037734 3.02910225 -3.74037734 3.02910225 -5 1 C-3.68 1.33 -2.36 1.66 -1 2 C-0.67 1.34 -0.34 0.68 0 0 Z " fill="#548C82" transform="translate(44,76)"/>
<path d="M0 0 C1.32 0 2.64 0 4 0 C4.66 2.31 5.32 4.62 6 7 C3.625 7.1875 3.625 7.1875 1 7 C-1 4 -1 4 -0.625 1.8125 C-0.41875 1.214375 -0.2125 0.61625 0 0 Z " fill="#4D9E97" transform="translate(15,123)"/>
<path d="M0 0 C0.66 0 1.32 0 2 0 C2.309375 0.969375 2.61875 1.93875 2.9375 2.9375 C3.69523342 5.84065792 3.69523342 5.84065792 5 7 C6.51928038 7.07179964 8.04167482 7.08392007 9.5625 7.0625 C10.38878906 7.05347656 11.21507812 7.04445313 12.06640625 7.03515625 C13.02353516 7.01775391 13.02353516 7.01775391 14 7 C14 7.66 14 8.32 14 9 C12.22992286 9.08114106 10.45877902 9.13925505 8.6875 9.1875 C7.70136719 9.22230469 6.71523438 9.25710937 5.69921875 9.29296875 C3 9 3 9 1.15625 7.6875 C-0.5684867 5.1703167 -0.19767151 2.96507269 0 0 Z " fill="#191919" transform="translate(25,74)"/>
<path d="M0 0 C5 1 5 1 6.8125 3.0625 C7.204375 3.701875 7.59625 4.34125 8 5 C5.525 4.01 5.525 4.01 3 3 C2.67 5.64 2.34 8.28 2 11 C1.67 11 1.34 11 1 11 C0.67 7.37 0.34 3.74 0 0 Z " fill="#294F4D" transform="translate(100,151)"/>
<path d="M0 0 C1.32 0.33 2.64 0.66 4 1 C3.67 2.65 3.34 4.3 3 6 C1.68 6.33 0.36 6.66 -1 7 C-1 4.37886292 -0.68707555 2.49064888 0 0 Z " fill="#44181C" transform="translate(72,49)"/>
<path d="M0 0 C1.33333333 0.66666667 2.66666667 1.33333333 4 2 C4.99 1.67 5.98 1.34 7 1 C6.5020163 4.73487777 6.12508244 6.81237635 4 10 C3.34 9.67 2.68 9.34 2 9 C2.99 7.35 3.98 5.7 5 4 C3.35 3.67 1.7 3.34 0 3 C0 2.01 0 1.02 0 0 Z " fill="#333737" transform="translate(69,53)"/>
<path d="M0 0 C1.61949011 2.57213134 2.04408751 3.67669159 1.625 6.75 C1.41875 7.4925 1.2125 8.235 1 9 C2.32 9.33 3.64 9.66 5 10 C4.01 10.33 3.02 10.66 2 11 C1.34 10.67 0.68 10.34 0 10 C-0.44921875 7.96875 -0.44921875 7.96875 -0.6875 5.5 C-0.77386719 4.6853125 -0.86023438 3.870625 -0.94921875 3.03125 C-0.96597656 2.3609375 -0.98273438 1.690625 -1 1 C-0.67 0.67 -0.34 0.34 0 0 Z " fill="#DE864D" transform="translate(144,58)"/>
<path d="M0 0 C0.66 0.33 1.32 0.66 2 1 C2.33333333 2.33333333 2.66666667 3.66666667 3 5 C3.66 5.33 4.32 5.66 5 6 C0.545 5.01 0.545 5.01 -4 4 C-2.68 2.68 -1.36 1.36 0 0 Z " fill="#294F4D" transform="translate(66,116)"/>
<path d="M0 0 C0.95465783 2.16967689 1.14401212 3.56328793 0.3984375 5.82421875 C-0.35870385 7.5684743 -1.17609198 9.28627131 -2 11 C-2.33 11 -2.66 11 -3 11 C-2.25 3.375 -2.25 3.375 0 0 Z " fill="#D97D44" transform="translate(181,50)"/>
<path d="M0 0 C0.33 1.65 0.66 3.3 1 5 C-0.32 5.33 -1.64 5.66 -3 6 C-3 5.34 -3 4.68 -3 4 C-3.66 3.34 -4.32 2.68 -5 2 C-2 0 -2 0 0 0 Z " fill="#0B0809" transform="translate(30,66)"/>
<path d="M0 0 C0.33 0.99 0.66 1.98 1 3 C-0.98 4.32 -2.96 5.64 -5 7 C-5.66 6.67 -6.32 6.34 -7 6 C-4.69 4.02 -2.38 2.04 0 0 Z " fill="#141919" transform="translate(61,42)"/>
<path d="M0 0 C-0.66 0 -1.32 0 -2 0 C-2 0.66 -2 1.32 -2 2 C-5.63 1.67 -9.26 1.34 -13 1 C-13 0.67 -13 0.34 -13 0 C-11.58456585 -0.19658808 -10.16755969 -0.38187546 -8.75 -0.5625 C-7.96109375 -0.66691406 -7.1721875 -0.77132812 -6.359375 -0.87890625 C-3.99467126 -1.00027349 -2.2488963 -0.69633257 0 0 Z " fill="#326360" transform="translate(113,191)"/>
<path d="M0 0 C0.66 0.33 1.32 0.66 2 1 C2 1.66 2 2.32 2 3 C0.1875 4.0625 0.1875 4.0625 -2 5 C-2.99 4.67 -3.98 4.34 -5 4 C-3.35 2.68 -1.7 1.36 0 0 Z " fill="#371C22" transform="translate(14,70)"/>
<path d="M0 0 C0.99 0.33 1.98 0.66 3 1 C3 2.65 3 4.3 3 6 C2.01 6.33 1.02 6.66 0 7 C-0.33 6.01 -0.66 5.02 -1 4 C-0.34 4 0.32 4 1 4 C0.67 2.68 0.34 1.36 0 0 Z " fill="#2B5452" transform="translate(140,44)"/>
</svg>
